<svg xmlns="http://www.w3.org/2000/svg" xml:space="preserve" viewBox="0 0 15.8 10.5"><g fill="#004493"><path fill-rule="evenodd" d="M5.5 1.8v-.2l-.1.7c0 .2-.1.2-.2 0a1.6 1.6 0 0 0 0 .8C5.8 2 6.8 1.6 8 1.9l1.5.5a3.2 3.2 0 0 1-1.1 0h-.5c-.2.2-.4.2-.7 0-.1.3-.3.3-.5.3l.1-.3-.5.4v-.4l-.2.4-.3.1c0-.3-.1-.2-.2 0l-.4.4.1.1c1.6-.2 2.8.3 3.5 1.8l.4.5H9l-.7-.4V5l-.6-.2H8a1.6 1.6 0 0 1-.5-.2v-.2H7V4h-.6l.2-.2H6l.1-.1c-.8 0-.8.2-.1.6.7.6 1 1.4 1 2.3L6.6 8a1.9 1.9 0 0 1-.1-1c-.2-.2-.2-.4 0-.5-.4-.2-.4-.4-.4-.6a.8.8 0 0 1-.2-.4l.2-.1a.8.8 0 0 0-.4-.3V5H6a.9.9 0 0 1-.6-.4h.3a.8.8 0 0 1-.5-.4.8.8 0 0 0-.4.7l.2.8.7 2.1c.2 1 0 1.9-.5 2.7a3.4 3.4 0 0 1-1.3 0 5 5 0 0 0 .9-2.4l-.1-.7c-.3-.7-.5-1.3-.6-2v-1H4c-.3 0-.3.1 0 .2l-.6.4h.3l-.4.5h.2a.5.5 0 0 1-.3.5c.2.2.1.4-.1.5.1.2 0 .4-.2.6h.2l-.3 1a3 3 0 0 1-.2-1 3 3 0 0 1 1.2-3c0-.3 0-.4-.4-.4.2 0 .2.1 0 .2a1 1 0 0 0-.5-.1L3 4h-.7c.3.1.3.2.1.3l-.4.1-.1.2-.5.1c.2 0 .2 0 0 .2l-.3.2-.8.6c.3-.8.8-1.5 1.6-2A2.6 2.6 0 0 1 4 3.4l.4-.1a1.5 1.5 0 0 1-.5-.5h-.3l-.2-.4v.4H3l-.4-.4c0 .4 0 .4-.4 0-.3.2-.4.2-.6 0H0a4 4 0 0 1 3.5-.2l.8.6s.1 0 0-.2v-.5a.3.3 0 0 0 0 .3L4 2.3v-.7l-.1.2-.1.2-.2-.6a.5.5 0 0 0-.2.2L1.4 0c1.2 0 2.2.5 3 1.5l.4 1.1C5 1.1 6 .3 7.6 0h.5A5.6 5.6 0 0 0 7 .8h-.3c0 .2 0 .4-.3.5l-.4.4a.5.5 0 0 0-.2-.3c0 .2 0 .4-.2.6a.2.2 0 0 1 0-.2z" clip-rule="evenodd" image-rendering="optimizeQuality" shape-rendering="geometricPrecision" text-rendering="geometricPrecision"/><text xml:space="preserve" x="304.9" y="138.2" stroke-width="0" font-size="3.2" transform="translate(-298.8 -128)"><tspan x="304.9" y="138.2" font-family="Bauhaus 93" font-weight="400" style="-inkscape-font-specification:&quot;Bauhaus 93, Normal&quot;;font-variant-ligatures:normal;font-variant-caps:normal;font-variant-numeric:normal;font-variant-east-asian:normal">RAVELA</tspan></text></g></svg>