<svg xmlns="http://www.w3.org/2000/svg" xml:space="preserve" viewBox="0 0 118.3 24.5"><g fill="#13357bff" style="mix-blend-mode:normal"><path d="M14.9 3.3.2 6.7l-.2.8c0 .5.5 1 3.2 2.3a14 14 0 0 1 3.7 2.3c.2.4.7 2.5 1.1 4.7.9 5 1.2 5.3 3.9 3.3 1-.9 2.2-1.6 2.5-1.8.4-.1 1.6.9 3.8 3 3.5 3.5 4.4 3.9 5.3 2.5.2-.4 2.3-5.7 4.4-11.7C32.1.7 32.2.1 30.4 0c-.5 0-7.5 1.4-15.5 3.3zm11 .7c0 .2-2.6 2-5.6 3.9a36 36 0 0 0-6.9 5.2c-.6 0-1.1-2.4-.7-3.2.2-.4 3-1.9 6.5-3.4 6.4-2.8 6.6-2.9 6.6-2.5zM96 11.2V20h2.5V2.4H96zm5 0V20h2.4V2.4H101zM34.6 4.5c0 1 0 1 2.3 1.1l2.2.1v7.1l.1 7.2h2.5v-7.2l.2-7 2-.2c2-.1 2-.1 2-1.1v-1H34.6zm13.1 9V20h2.5v-4c0-2.3.1-4.5.4-5 .4-.8 1.6-1.6 2.7-1.6.6 0 .8-.2.8-1.2S53.9 7 53.2 7c-.5 0-1.3.4-2 .9l-1 .9v-1c0-.7-.2-.8-1.3-.8h-1.2zm9.9-5.8c-2.2 1.5-2.7 2.5-2.7 5.7 0 2.7.1 3 1 4.2 1.3 1.8 2.7 2.4 5 2.4a5 5 0 0 0 3.1-.9l1.3-.9v1c0 .7.2.8 1.3.8h1.2V7h-1.2c-1.1 0-1.3 0-1.3.8v.9l-1.2-.9a6.5 6.5 0 0 0-6.5 0zm5.7 2c1.9.9 2.5 3.7 1.5 6-1.4 2.9-5.8 2.9-7-.1-1.8-4.2 1.6-8 5.5-6zM69 7.6l2.4 6.4 2.3 5.8 1.6.1 1.5.1 2.4-6.2 2.4-6.6c0-.2-.6-.2-1.3-.2l-1.3.1-1.8 5.3c-1.7 4.6-2 5.2-2.2 4.4l-2-5.4L71.5 7h-1.3c-1.2 0-1.3 0-1.2.6zm15.7.1c-2.1 1.5-2.6 2.5-2.6 5.7 0 2.7 0 3 1 4.3 1.3 1.6 2.8 2.3 5.2 2.3 2.2 0 4-.8 5-2.1.9-1.4.8-1.8-.6-1.8-.8 0-1.5.3-2.1.9-1.6 1.6-4.9 1-5.8-1l-.4-1.3c0-.2 2.2-.4 5-.4l5-.1v-1.8c-.2-2.1-1.3-4-3-4.8-2-1-5.2-.8-6.7.1zm6 2.4c2 1.9 1.6 2.1-2.6 2.1l-3.7-.1c0-.6 1.1-2.3 1.6-2.6.4-.3 1.4-.4 2.2-.4 1.2 0 1.7.2 2.6 1zm17.5-2.5c-2 1.2-2.8 2.7-3 5.5 0 2 .1 2.7.8 3.9 1.2 2 2.8 3 5.2 3 1.5 0 2.3-.2 3.3-.9l1.3-.9v1c0 .7.1.8 1.2.8h1.3V7H117c-1 0-1.2 0-1.2.8v.9l-1.3-.9a6.7 6.7 0 0 0-6.3-.2zm5.5 2c1.2.7 2 2.2 2 3.9 0 4.2-4.7 6-7.2 2.6l-.7-1.8c-.6-3.7 2.7-6.4 5.9-4.7z"/></g></svg>