<?xml version="1.0" encoding="UTF-8" standalone="no"?>
<!-- Created with Inkscape (http://www.inkscape.org/) -->

<svg
   width="31.540403mm"
   height="24.536987mm"
   viewBox="0 0 31.540403 24.536987"
   version="1.1"
   id="svg1"
   xml:space="preserve"
   inkscape:export-filename="logo.svg"
   inkscape:export-xdpi="96"
   inkscape:export-ydpi="96"
   xmlns:inkscape="http://www.inkscape.org/namespaces/inkscape"
   xmlns:sodipodi="http://sodipodi.sourceforge.net/DTD/sodipodi-0.dtd"
   xmlns="http://www.w3.org/2000/svg"
   xmlns:svg="http://www.w3.org/2000/svg"><sodipodi:namedview
     id="namedview1"
     pagecolor="#ffffff"
     bordercolor="#000000"
     borderopacity="0.25"
     inkscape:showpageshadow="2"
     inkscape:pageopacity="0.0"
     inkscape:pagecheckerboard="0"
     inkscape:deskcolor="#d1d1d1"
     inkscape:document-units="mm" /><defs
     id="defs1" /><g
     inkscape:label="Layer 1"
     inkscape:groupmode="layer"
     id="layer1"
     transform="translate(-230.04218,-144.80627)"><path
       d="m 244.93505,148.12301 c -8.04333,1.83444 -14.67556,3.38666 -14.71083,3.38666 0,0.0353 -0.10584,0.38806 -0.17639,0.77612 -0.0706,0.56444 0.49389,0.98777 3.175,2.29305 1.83444,0.88195 3.4925,1.905 3.70417,2.29306 0.21166,0.38805 0.70555,2.50472 1.12888,4.72722 0.88195,5.08 1.16417,5.29167 3.84528,3.28083 1.09361,-0.84666 2.2225,-1.5875 2.54,-1.72861 0.35278,-0.14111 1.5875,0.84667 3.81,3.03389 3.45723,3.38667 4.40973,3.81 5.25639,2.39889 0.28222,-0.42333 2.29306,-5.67972 4.48028,-11.67694 4.19806,-11.43001 4.30389,-11.95917 2.43417,-12.10028 -0.45861,-0.0353 -7.44361,1.44639 -15.48695,3.31611 z m 10.93611,0.70555 c 0,0.17639 -2.50472,1.905 -5.57389,3.84528 -3.06916,1.97556 -5.715,3.95111 -5.96194,4.40972 -0.24695,0.45862 -0.635,0.84667 -0.88195,0.84667 -0.59972,0 -1.12888,-2.43417 -0.70555,-3.24556 0.21167,-0.35277 3.06917,-1.83444 6.49111,-3.35138 6.42056,-2.82223 6.63222,-2.92806 6.63222,-2.50473 z"
       id="path2"
       style="fill:#000000;stroke:none;stroke-width:0.0352778" /></g></svg>
