<?xml version="1.0" encoding="UTF-8" standalone="no"?>
<!-- Created with Inkscape (http://www.inkscape.org/) -->

<svg
   width="9.4985476mm"
   height="10.536566mm"
   viewBox="0 0 9.4985476 10.536566"
   version="1.1"
   id="svg1"
   xml:space="preserve"
   xmlns:inkscape="http://www.inkscape.org/namespaces/inkscape"
   xmlns:sodipodi="http://sodipodi.sourceforge.net/DTD/sodipodi-0.dtd"
   xmlns="http://www.w3.org/2000/svg"
   xmlns:svg="http://www.w3.org/2000/svg"><sodipodi:namedview
     id="namedview1"
     pagecolor="#ffffff"
     bordercolor="#000000"
     borderopacity="0.25"
     inkscape:showpageshadow="2"
     inkscape:pageopacity="0.0"
     inkscape:pagecheckerboard="0"
     inkscape:deskcolor="#d1d1d1"
     inkscape:document-units="mm" /><defs
     id="defs1" /><g
     inkscape:label="Layer 1"
     inkscape:groupmode="layer"
     id="layer1"
     transform="translate(-296.85166,-141.1195)"><path
       fill="#f4f4f4"
       d="m 302.38142,142.91869 c 0,-0.10583 -0.0529,-0.15875 -0.10584,-0.21166 -0.0529,0.23812 -0.0529,0.44979 -0.0529,0.68791 -0.0529,0.18521 -0.10584,0.18521 -0.15875,0 a 1.5875,1.5875 0 0 0 -0.0529,0.79375 c 0.68792,-1.05833 1.64042,-1.42875 2.88396,-1.16416 0.52916,0.10583 1.00541,0.26458 1.45521,0.47625 a 3.175,3.175 0 0 1 -1.11125,-0.0265 c -0.18521,0.18521 -0.34396,0.18521 -0.52917,0 -0.15875,0.21167 -0.37042,0.26458 -0.635,0.13229 -0.13229,0.18521 -0.29104,0.23813 -0.52917,0.18521 0.10584,-0.10583 0.13229,-0.21167 0.13229,-0.3175 l -0.47625,0.42333 c -0.0265,-0.13229 -0.0265,-0.26458 0,-0.42333 -0.13229,0.15875 -0.23812,0.3175 -0.29104,0.47625 -0.0794,0.0794 -0.15875,0.10583 -0.26458,0.0794 -0.0265,-0.26458 -0.10583,-0.21166 -0.21167,0.0794 l -0.42333,0.3175 0.15875,0.13229 c 1.5875,-0.26458 2.75167,0.29104 3.51896,1.71979 l 0.3175,0.58209 -0.0529,0.0529 c -0.23812,-0.21166 -0.47625,-0.37041 -0.71437,-0.52916 -0.0529,-0.0794 -0.0794,-0.15875 -0.0794,-0.26459 -0.18521,0.0529 -0.34396,0 -0.47625,-0.15875 l 0.0794,-0.0794 a 1.5875,1.5875 0 0 1 -0.50271,-0.13229 c -0.0794,-0.0794 -0.0794,-0.1323 0,-0.21167 l -0.42334,-0.0794 c -0.0794,-0.13229 -0.0264,-0.23812 0.15875,-0.26458 h -0.635 l -0.0794,-0.0794 0.26458,-0.21167 -0.68791,0.0794 -0.0529,-0.0794 c 0.0794,0 0.13229,-0.0794 0.18521,-0.13229 -0.79375,0.0529 -0.87313,0.29104 -0.18521,0.68791 0.71437,0.58209 1.03187,1.32292 0.97896,2.2225 0,0.52917 -0.0794,1.03188 -0.21167,1.53459 a 1.8520833,1.8520833 0 0 1 -0.15875,-1.00542 c -0.21167,-0.15875 -0.21167,-0.34396 -0.0529,-0.50271 -0.26458,-0.15875 -0.34395,-0.37041 -0.26458,-0.635 a 0.79374999,0.79374999 0 0 1 -0.29104,-0.37041 c 0.0794,-0.0529 0.15875,-0.10584 0.26458,-0.10584 a 0.79374999,0.79374999 0 0 0 -0.37041,-0.26458 c -0.0529,-0.0529 -0.0529,-0.13229 -0.0529,-0.18521 0.10583,0 0.18521,0 0.26458,-0.0529 -0.21166,-0.0529 -0.39687,-0.15875 -0.52916,-0.34395 l 0.26458,-0.0794 c -0.21167,-0.0265 -0.39688,-0.13229 -0.52917,-0.3175 a 0.79374999,0.79374999 0 0 0 -0.37041,0.68792 l 0.15875,0.79375 c 0.34395,0.66146 0.58208,1.37583 0.79375,2.11666 0.15875,0.92605 -0.0265,1.82563 -0.52917,2.64584 a 3.4395833,3.4395833 0 0 1 -1.27,0 c 0.44979,-0.71438 0.74083,-1.50813 0.84667,-2.35479 0,-0.26459 -0.0529,-0.47625 -0.10584,-0.74084 -0.26458,-0.66146 -0.44979,-1.32291 -0.60854,-2.01083 0.0265,-0.37042 0,-0.71438 -0.0529,-1.05833 -0.0529,0 -0.0794,0.0264 -0.0794,0.0794 -0.3175,0.0265 -0.3175,0.10583 -0.0794,0.21167 -0.15875,0.18521 -0.37041,0.3175 -0.60854,0.37041 0.10584,0 0.23813,0.0529 0.34396,0.10584 -0.10583,0.15875 -0.26458,0.29104 -0.42333,0.39687 0.10583,-0.0265 0.18521,0 0.26458,0.0265 a 0.52916666,0.52916666 0 0 1 -0.34396,0.44979 c 0.15875,0.21167 0.13229,0.39688 -0.13229,0.55563 0.13229,0.21166 0.0794,0.39687 -0.13229,0.58208 l 0.13229,0.0529 -0.26458,0.9525 c -0.10584,-0.3175 -0.18521,-0.635 -0.18521,-0.97896 -0.21167,-1.24354 0.18521,-2.2225 1.19062,-2.93688 0.0529,-0.34395 -0.0794,-0.52916 -0.39687,-0.52916 0.21167,0.10583 0.18521,0.18521 -0.0265,0.26458 a 1.0583333,1.0583333 0 0 0 -0.52917,-0.13229 l 0.21167,0.18521 -0.635,0.10583 c 0.23813,0.0529 0.26458,0.15875 0.0794,0.26458 l -0.42334,0.0794 c 0.0529,0.10583 0,0.18521 -0.13229,0.21167 -0.15875,0 -0.26458,0.0529 -0.42333,0.0794 0.13229,0.0265 0.13229,0.0794 0.0529,0.15875 l -0.39687,0.18521 0.0529,0.0529 -0.79375,0.60854 c 0.26458,-0.84667 0.79375,-1.53459 1.5875,-2.06375 a 2.6458333,2.6458333 0 0 1 1.85208,-0.26459 c 0.13229,0 0.26458,-0.0529 0.37042,-0.13229 a 1.5345833,1.5345833 0 0 1 -0.4498,-0.47625 c -0.0529,0.10584 -0.13229,0.15875 -0.26458,0.10584 l -0.29104,-0.4498 0.0265,0.34396 -0.21167,-0.0265 c -0.0794,-0.15875 -0.21167,-0.29104 -0.34396,-0.39687 0.0529,0.44979 -0.0794,0.47625 -0.44979,0.0794 -0.23812,0.18521 -0.42333,0.15875 -0.60854,-0.0794 -0.18521,0.18521 -0.34396,0.18521 -0.52917,0 -0.37041,0.0794 -0.76729,0.0794 -1.13771,0.0265 1.13771,-0.60854 2.30188,-0.66146 3.4925,-0.21167 l 0.7673,0.66146 c 0.10583,0 0.15875,-0.10583 0.13229,-0.18521 l -0.0265,-0.50271 a 0.26458333,0.26458333 0 0 0 -0.10583,0.21167 c -0.0529,0.0529 -0.10584,0.0529 -0.1323,-0.0794 0,-0.23812 0,-0.44979 -0.0529,-0.68791 -0.0529,0.0529 -0.10584,0.10583 -0.10584,0.21166 0,0.0794 0,0.15875 -0.10583,0.21167 l -0.18521,-0.635 a 0.52916666,0.52916666 0 0 0 -0.15875,0.26458 c -0.60854,-0.55562 -1.32291,-1.11125 -2.11666,-1.64041 1.21708,0.0265 2.2225,0.52916 2.96333,1.50812 0.15875,0.37042 0.29104,0.74084 0.39687,1.13771 0.34396,-1.53458 1.32292,-2.38125 2.8575,-2.64583 h 0.50271 a 5.5562499,5.5562499 0 0 0 -1.13771,0.84666 c -0.10583,0.0265 -0.1852,0 -0.23812,-0.10583 0,0.26458 -0.13229,0.44979 -0.34396,0.55563 l -0.0794,-0.0529 c -0.0794,0.15875 -0.21167,0.29104 -0.34396,0.42333 a 0.52916666,0.52916666 0 0 0 -0.13229,-0.29104 c 0,0.26458 -0.0794,0.44979 -0.21167,0.635 a 0.238125,0.238125 0 0 1 -0.10583,-0.21167 z"
       id="path1-3"
       style="clip-rule:evenodd;fill:#000000;fill-rule:evenodd;stroke-width:0.264583;image-rendering:optimizeQuality;shape-rendering:geometricPrecision;text-rendering:geometricPrecision" /></g></svg>
